<svg xmlns="http://www.w3.org/2000/svg" viewBox="0 0 32 32" fill="none">
  <!-- Background circle -->
  <circle cx="16" cy="16" r="14" fill="#4F46E5"/>
  
  <!-- Heart icon -->
  <path d="M16 25.5L7.5 17C5.5 15 5.5 11.5 7.5 9.5C9.5 7.5 13 7.5 16 10.5C19 7.5 22.5 7.5 24.5 9.5C26.5 11.5 26.5 15 24.5 17L16 25.5Z" fill="white"/>
  
  <!-- Small heart inside -->
  <path d="M16 20L13 17C12.3 16.3 12.3 15.2 13 14.5C13.7 13.8 14.8 13.8 15.5 14.5L16 15L16.5 14.5C17.2 13.8 18.3 13.8 19 14.5C19.7 15.2 19.7 16.3 19 17L16 20Z" fill="#4F46E5" opacity="0.3"/>
</svg>
